. 
  
http://www.torrentday.com/        :     The Hottest Private Tracker On The Net!!!
 
http://www.torrentday.com          :     Once & For all ;)


               www . TorrentDay . Com 

(((((((((((((= Enjoy No RAR releases =))))))))))))))))))))


...................................NFO:....................................

.[img]http://img263.imageshack.us/img263/6914/posterlht.jpg[/img]

[color=red][size=4][b]Gulivers.Travels.2010.DVDRiP.XViD.AC3.NiTR0[/b][/size][/color]

Source: R1 NTSC DVD9
Runtime: 95 min
Genre: Comedy
Audio: English 5.1
Subtitles: None
IMDB: http://www.imdb.com/title/tt1320261/

[color=red][size=3][b]General[/b][/size][/color]
Complete name                    : Gulivers.Travels.2010.DVDRiP.XViD.AC3.NiTR0.avi
Format                           : AVI
Format/Info                      : Audio Video Interleave
Format profile                   : OpenDML
Format settings                  : rec
File size                        : 1.36 GiB
Duration                         : 1h 21mn
Overall bit rate                 : 2 404 Kbps

[color=red][size=3][b]Video[/b][/size][/color]
Format                           : MPEG-4 Visual
Format profile                   : Advanced Simple@L5
Format settings, BVOP            : 2
Format settings, QPel            : No
Format settings, GMC             : No warppoints
Format settings, Matrix          : Default (H.263)
Muxing mode                      : Packed bitstream
Codec ID                         : XVID
Duration                         : 1h 21mn
Bit rate                         : 1 951 Kbps
Width                            : 720 pixels
Height                           : 304 pixels
Display aspect ratio             : 2.35:1
Frame rate                       : 25.000 fps
Scan type                        : Progressive
Stream size                      : 1.11 GiB (81%)

[color=red][size=3][b]Audio[/b][/size][/color]
Format                           : AC-3
Format/Info                      : Audio Coding 3
Mode extension                   : CM (complete main)
Duration                         : 1h 21mn
Bit rate mode                    : Constant
Bit rate                         : 448 Kbps
Channel(s)                       : 6 channels
Channel positions                : Front: L C R, Side: L R, LFE
Sampling rate                    : 48.0 KHz
Bit depth                        : 16 bits
Stream size                      : 260 MiB (19%)

[color=red][size=3][b]Plot:[/b][/size][/color]
Travel writer Lemuel Gulliver takes an assignment in Bermuda, but ends up on the island of Liliput, where he towers over its tiny citizens.

[color=red][size=3][b]Group Notes:[/b][/size][/color]
Special Thanks to HiTM4N

[color=red][size=3][b]Screens:[/b][/size][/color]
[img]http://img340.imageshack.us/img340/2005/22548920.png[/img]
[img]http://img263.imageshack.us/img263/1742/97899268.png[/img]
[img]http://img263.imageshack.us/img263/8171/23746074.png[/img]
[img]http://img263.imageshack.us/img263/2473/83512484.png[/img]